<svg xmlns="http://www.w3.org/2000/svg" xmlns:xlink="http://www.w3.org/1999/xlink" width="200" zoomAndPan="magnify" viewBox="0 0 150 30.000001" height="40" preserveAspectRatio="xMidYMid meet" version="1.0"><defs><g/></defs><g fill="#e3dddc" fill-opacity="1"><g transform="translate(29.793159, 20.969867)"><g><path d="M 4.90625 2.28125 L 7.46875 2.28125 L 7.46875 0.21875 C 10.109375 -0.078125 11.703125 -1.546875 11.703125 -3.875 C 11.703125 -6.046875 10.265625 -7.34375 6.859375 -8.15625 C 4.75 -8.640625 4.03125 -9.171875 4.03125 -10.015625 C 4.03125 -10.921875 4.828125 -11.46875 6.140625 -11.46875 C 7.578125 -11.46875 8.453125 -10.71875 8.453125 -9.484375 L 11.453125 -9.484375 C 11.453125 -11.859375 9.921875 -13.5 7.4375 -13.90625 L 7.4375 -15.90625 L 4.953125 -15.90625 L 4.953125 -13.9375 C 2.46875 -13.609375 0.984375 -12.15625 0.984375 -9.953125 C 0.984375 -7.71875 2.5 -6.390625 5.71875 -5.703125 C 7.65625 -5.28125 8.546875 -4.71875 8.546875 -3.75 C 8.546875 -2.828125 7.71875 -2.296875 6.421875 -2.296875 C 4.90625 -2.296875 3.921875 -3.0625 3.921875 -4.375 L 0.859375 -4.375 C 0.859375 -1.984375 2.375 -0.3125 4.90625 0.140625 Z M 4.90625 2.28125 "/></g></g></g><g fill="#e3dddc" fill-opacity="1"><g transform="translate(46.453284, 20.969867)"><g><path d="M 10.15625 0 L 13.28125 0 L 13.28125 -13.75 L 10.15625 -13.75 L 10.15625 -8.46875 L 4.765625 -8.46875 L 4.765625 -13.75 L 1.65625 -13.75 L 1.65625 0 L 4.765625 0 L 4.765625 -5.53125 L 10.15625 -5.53125 Z M 10.15625 0 "/></g></g></g><g fill="#e3dddc" fill-opacity="1"><g transform="translate(65.451184, 20.969867)"><g><path d="M 8.171875 0.28125 C 12.46875 0.28125 15.515625 -2.671875 15.515625 -6.875 C 15.515625 -11.078125 12.46875 -14.03125 8.171875 -14.03125 C 3.875 -14.03125 0.84375 -11.078125 0.84375 -6.875 C 0.84375 -2.671875 3.875 0.28125 8.171875 0.28125 Z M 4.03125 -6.875 C 4.03125 -9.34375 5.734375 -11.0625 8.171875 -11.0625 C 10.625 -11.0625 12.3125 -9.34375 12.3125 -6.875 C 12.3125 -4.40625 10.625 -2.6875 8.171875 -2.6875 C 5.734375 -2.6875 4.03125 -4.40625 4.03125 -6.875 Z M 4.03125 -6.875 "/></g></g></g><g fill="#e3dddc" fill-opacity="1"><g transform="translate(85.883186, 20.969867)"><g><path d="M 1.65625 0 L 4.75 0 L 4.75 -8.28125 L 8.09375 -3.390625 L 10.25 -3.390625 L 13.59375 -8.265625 L 13.59375 0 L 16.6875 0 L 16.6875 -13.75 L 14.0625 -13.75 L 9.1875 -6.625 L 4.296875 -13.75 L 1.65625 -13.75 Z M 1.65625 0 "/></g></g></g><g fill="#e3dddc" fill-opacity="1"><g transform="translate(108.299353, 20.969867)"><g><path d="M 1.65625 0 L 10.90625 0 L 10.90625 -2.65625 L 4.75 -2.65625 L 4.75 -5.65625 L 10.15625 -5.65625 L 10.15625 -8.265625 L 4.75 -8.265625 L 4.75 -11.109375 L 10.6875 -11.109375 L 10.6875 -13.75 L 1.65625 -13.75 Z M 1.65625 0 "/></g></g></g></svg>