<svg xmlns="http://www.w3.org/2000/svg" xmlns:xlink="http://www.w3.org/1999/xlink" width="500" zoomAndPan="magnify" viewBox="0 0 375 374.999991" height="500" preserveAspectRatio="xMidYMid meet" version="1.0"><defs><g/><clipPath id="fd475cc460"><path d="M 91.972656 212.382812 L 187.5 212.382812 L 187.5 223.003906 L 91.972656 223.003906 Z M 91.972656 212.382812 " clip-rule="nonzero"/></clipPath><clipPath id="73e06b1507"><path d="M 205.011719 151.996094 L 300.542969 151.996094 L 300.542969 162.617188 L 205.011719 162.617188 Z M 205.011719 151.996094 " clip-rule="nonzero"/></clipPath></defs><g clip-path="url(#fd475cc460)"><path fill="#e3dddc" d="M 91.972656 212.382812 L 187.496094 212.382812 L 187.496094 223.003906 L 91.972656 223.003906 Z M 91.972656 212.382812 " fill-opacity="1" fill-rule="nonzero"/></g><g clip-path="url(#73e06b1507)"><path fill="#e3dddc" d="M 205.011719 151.996094 L 300.535156 151.996094 L 300.535156 162.617188 L 205.011719 162.617188 Z M 205.011719 151.996094 " fill-opacity="1" fill-rule="nonzero"/></g><g fill="#e3dddc" fill-opacity="1"><g transform="translate(38.537968, 196.184585)"><g><path d="M 5.1875 0 L 14.984375 0 L 14.984375 -12.03125 L 22.078125 -12.03125 C 32.515625 -12.03125 39.234375 -18.140625 39.234375 -27.578125 C 39.234375 -37.078125 32.515625 -43.1875 22.078125 -43.1875 L 5.1875 -43.1875 Z M 14.921875 -20.484375 L 14.921875 -34.609375 L 21.28125 -34.609375 C 26.40625 -34.609375 29.234375 -32.015625 29.234375 -27.515625 C 29.234375 -23.015625 26.40625 -20.484375 21.28125 -20.484375 Z M 14.921875 -20.484375 "/></g></g></g><g fill="#e3dddc" fill-opacity="1"><g transform="translate(92.324641, 196.184585)"><g><path d="M 0.5625 0 L 11.046875 0 L 13.9375 -7.46875 L 31.09375 -7.46875 L 33.984375 0 L 44.484375 0 L 27.328125 -43.1875 L 17.703125 -43.1875 Z M 16.46875 -15.171875 L 22.515625 -30.96875 L 28.625 -15.171875 Z M 16.46875 -15.171875 "/></g></g></g><g fill="#e3dddc" fill-opacity="1"><g transform="translate(150.120407, 196.184585)"><g><path d="M 15.546875 0 L 25.359375 0 L 25.359375 -33.984375 L 39.046875 -33.984375 L 39.046875 -43.1875 L 1.84375 -43.1875 L 1.84375 -33.984375 L 15.546875 -33.984375 Z M 15.546875 0 "/></g></g></g><g fill="#e3dddc" fill-opacity="1"><g transform="translate(203.794635, 219.693292)"><g><path d="M 8.265625 0.671875 C 11.59375 0.671875 14 -1.671875 14 -4.875 C 14 -8.078125 11.59375 -10.484375 8.265625 -10.484375 C 4.875 -10.484375 2.53125 -8.078125 2.53125 -4.875 C 2.53125 -1.671875 4.875 0.671875 8.265625 0.671875 Z M 8.265625 0.671875 "/></g></g></g><g fill="#e3dddc" fill-opacity="1"><g transform="translate(233.03332, 219.693292)"><g><path d="M 0.5625 0 L 11.046875 0 L 13.9375 -7.46875 L 31.09375 -7.46875 L 33.984375 0 L 44.484375 0 L 27.328125 -43.1875 L 17.703125 -43.1875 Z M 16.46875 -15.171875 L 22.515625 -30.96875 L 28.625 -15.171875 Z M 16.46875 -15.171875 "/></g></g></g><g fill="#e3dddc" fill-opacity="1"><g transform="translate(290.829087, 219.693292)"><g><path d="M 22.828125 0.859375 C 34.046875 0.859375 40.90625 -6.171875 40.90625 -17.765625 L 40.90625 -43.1875 L 31.09375 -43.1875 L 31.09375 -18.4375 C 31.09375 -11.84375 28.3125 -8.453125 22.828125 -8.453125 C 17.328125 -8.453125 14.5625 -11.84375 14.5625 -18.4375 L 14.5625 -43.1875 L 4.75 -43.1875 L 4.75 -17.765625 C 4.75 -6.171875 11.59375 0.859375 22.828125 0.859375 Z M 22.828125 0.859375 "/></g></g></g></svg>