<svg xmlns="http://www.w3.org/2000/svg" xmlns:xlink="http://www.w3.org/1999/xlink" width="200" zoomAndPan="magnify" viewBox="0 0 150 30.000001" height="40" preserveAspectRatio="xMidYMid meet" version="1.0"><defs><g/><clipPath id="c92b693baf"><path d="M 45.164062 20.734375 L 72.199219 20.734375 L 72.199219 23.742188 L 45.164062 23.742188 Z M 45.164062 20.734375 " clip-rule="nonzero"/></clipPath><clipPath id="6c07e632d3"><path d="M 77.152344 2.902344 L 104.1875 2.902344 L 104.1875 5.910156 L 77.152344 5.910156 Z M 77.152344 2.902344 " clip-rule="nonzero"/></clipPath></defs><g clip-path="url(#c92b693baf)"><path fill="#e3dddc" d="M 45.164062 20.734375 L 72.195312 20.734375 L 72.195312 23.742188 L 45.164062 23.742188 Z M 45.164062 20.734375 " fill-opacity="1" fill-rule="nonzero"/></g><g clip-path="url(#6c07e632d3)"><path fill="#e3dddc" d="M 77.152344 2.902344 L 104.183594 2.902344 L 104.183594 5.910156 L 77.152344 5.910156 Z M 77.152344 2.902344 " fill-opacity="1" fill-rule="nonzero"/></g><g fill="#e3dddc" fill-opacity="1"><g transform="translate(30.042918, 16.152143)"><g><path d="M 1.46875 0 L 4.234375 0 L 4.234375 -3.40625 L 6.25 -3.40625 C 9.203125 -3.40625 11.09375 -5.125 11.09375 -7.796875 C 11.09375 -10.484375 9.203125 -12.21875 6.25 -12.21875 L 1.46875 -12.21875 Z M 4.21875 -5.796875 L 4.21875 -9.796875 L 6.015625 -9.796875 C 7.46875 -9.796875 8.265625 -9.0625 8.265625 -7.78125 C 8.265625 -6.515625 7.46875 -5.796875 6.015625 -5.796875 Z M 4.21875 -5.796875 "/></g></g></g><g fill="#e3dddc" fill-opacity="1"><g transform="translate(45.26428, 16.152143)"><g><path d="M 0.15625 0 L 3.125 0 L 3.9375 -2.109375 L 8.796875 -2.109375 L 9.609375 0 L 12.578125 0 L 7.734375 -12.21875 L 5.015625 -12.21875 Z M 4.65625 -4.296875 L 6.375 -8.765625 L 8.09375 -4.296875 Z M 4.65625 -4.296875 "/></g></g></g><g fill="#e3dddc" fill-opacity="1"><g transform="translate(61.620195, 16.152143)"><g><path d="M 4.390625 0 L 7.171875 0 L 7.171875 -9.609375 L 11.046875 -9.609375 L 11.046875 -12.21875 L 0.53125 -12.21875 L 0.53125 -9.609375 L 4.390625 -9.609375 Z M 4.390625 0 "/></g></g></g><g fill="#e3dddc" fill-opacity="1"><g transform="translate(76.807, 22.061614)"><g><path d="M 2.34375 0.1875 C 3.28125 0.1875 3.96875 -0.46875 3.96875 -1.375 C 3.96875 -2.28125 3.28125 -2.96875 2.34375 -2.96875 C 1.375 -2.96875 0.71875 -2.28125 0.71875 -1.375 C 0.71875 -0.46875 1.375 0.1875 2.34375 0.1875 Z M 2.34375 0.1875 "/></g></g></g><g fill="#e3dddc" fill-opacity="1"><g transform="translate(85.081402, 22.061614)"><g><path d="M 0.15625 0 L 3.125 0 L 3.9375 -2.109375 L 8.796875 -2.109375 L 9.609375 0 L 12.578125 0 L 7.734375 -12.21875 L 5.015625 -12.21875 Z M 4.65625 -4.296875 L 6.375 -8.765625 L 8.09375 -4.296875 Z M 4.65625 -4.296875 "/></g></g></g><g fill="#e3dddc" fill-opacity="1"><g transform="translate(101.437317, 22.061614)"><g><path d="M 6.453125 0.25 C 9.640625 0.25 11.578125 -1.75 11.578125 -5.03125 L 11.578125 -12.21875 L 8.796875 -12.21875 L 8.796875 -5.21875 C 8.796875 -3.34375 8.015625 -2.390625 6.453125 -2.390625 C 4.90625 -2.390625 4.125 -3.34375 4.125 -5.21875 L 4.125 -12.21875 L 1.34375 -12.21875 L 1.34375 -5.03125 C 1.34375 -1.75 3.28125 0.25 6.453125 0.25 Z M 6.453125 0.25 "/></g></g></g></svg>