<svg id="visual" viewBox="0 0 900 600" width="900" height="600" xmlns="http://www.w3.org/2000/svg" xmlns:xlink="http://www.w3.org/1999/xlink" version="1.1"><path d="M0 483L25 486.2C50 489.3 100 495.7 150 499.8C200 504 250 506 300 503.8C350 501.7 400 495.3 450 486C500 476.7 550 464.3 600 465.5C650 466.7 700 481.3 750 475.5C800 469.7 850 443.3 875 430.2L900 417L900 601L875 601C850 601 800 601 750 601C700 601 650 601 600 601C550 601 500 601 450 601C400 601 350 601 300 601C250 601 200 601 150 601C100 601 50 601 25 601L0 601Z" fill="#FFFFFF" stroke-linecap="round" stroke-linejoin="miter"></path></svg>